<?xml version="1.0" ?>
<!--Created by PyChart 1.39 Copyright 1999-2006 Yasushi Saito-->
<svg viewBox="283.5 -423 197.249 153.5" xmlns="http://www.w3.org/2000/svg" xmlns:xlink="http://www.w3.org/1999/xlink">
  <defs>
    <clipPath id="clip0">
      <path d="M 297 -297 L 297 -423 L 453 -423 L 453 -297 Z"/>
    </clipPath>
    <clipPath id="clip1">
      <path d="M 300 -300 L 300 -420 L 450 -420 L 450 -300 Z"/>
    </clipPath>
    <clipPath id="clip2">
      <path d="M 297.5 -300.0 L 297.5 -328.23529411764707 L 302.5 -328.23529411764707 L 302.5 -300.0 Z"/>
    </clipPath>
    <clipPath id="clip3">
      <path d="M 324.77272727272725 -300.0 L 324.77272727272725 -391.76470588235293 L 329.77272727272725 -391.76470588235293 L 329.77272727272725 -300.0 Z"/>
    </clipPath>
    <clipPath id="clip4">
      <path d="M 352.04545454545456 -300.0 L 352.04545454545456 -377.64705882352939 L 357.04545454545456 -377.64705882352939 L 357.04545454545456 -300.0 Z"/>
    </clipPath>
    <clipPath id="clip5">
      <path d="M 379.31818181818181 -300.0 L 379.31818181818181 -363.52941176470586 L 384.31818181818181 -363.52941176470586 L 384.31818181818181 -300.0 Z"/>
    </clipPath>
    <clipPath id="clip6">
      <path d="M 406.59090909090912 -300.0 L 406.59090909090912 -335.29411764705884 L 411.59090909090912 -335.29411764705884 L 411.59090909090912 -300.0 Z"/>
    </clipPath>
    <clipPath id="clip7">
      <path d="M 433.86363636363637 -300.0 L 433.86363636363637 -405.88235294117646 L 438.86363636363637 -405.88235294117646 L 438.86363636363637 -300.0 Z"/>
    </clipPath>
    <clipPath id="clip8">
      <path d="M 297 -297 L 297 -423 L 453 -423 L 453 -297 Z"/>
    </clipPath>
    <clipPath id="clip9">
      <path d="M 290 -290 L 290 -430 L 460 -430 L 460 -290 Z"/>
    </clipPath>
    <clipPath id="clip10">
      <path d="M 460.0 -297 L 460.0 -306.0 L 477.74900000000002 -306.0 L 477.74900000000002 -297 Z"/>
    </clipPath>
    <clipPath id="clip11">
      <path d="M 465.0 -302.94999999999999 L 465.0 -305.05000000000001 L 467.10000000000002 -305.05000000000001 L 467.10000000000002 -302.94999999999999 Z"/>
    </clipPath>
  </defs>
  <g style="stroke-linejoin:miter;font-size:3.0;font-family:Times;fill:none;stroke-linecap:butt;stroke:rgb(0,0,0);font-stretch:normal;stroke-dasharray:none;font-weight:normal;font-style:normal;stroke-width:0.4;">
    <path d="M 300 -300 L 450 -300"/>
    <path d="M 300 -300 L 450 -300"/>
    <path d="M 300.0 -300 L 300.0 -294"/>
    <text style="stroke:none;fill:rgb(0,0,0);" x="298.5" y="-291.0">
      10
    </text>
    <path d="M 327.27272727272725 -300 L 327.27272727272725 -294"/>
    <text style="stroke:none;fill:rgb(0,0,0);" x="324.64772727272725" y="-291.0">
      20.0
    </text>
    <path d="M 354.54545454545456 -300 L 354.54545454545456 -294"/>
    <text style="stroke:none;fill:rgb(0,0,0);" x="351.92045454545456" y="-291.0">
      30.0
    </text>
    <path d="M 381.81818181818181 -300 L 381.81818181818181 -294"/>
    <text style="stroke:none;fill:rgb(0,0,0);" x="379.19318181818181" y="-291.0">
      40.0
    </text>
    <path d="M 409.09090909090912 -300 L 409.09090909090912 -294"/>
    <text style="stroke:none;fill:rgb(0,0,0);" x="406.46590909090912" y="-291.0">
      50.0
    </text>
    <path d="M 436.36363636363637 -300 L 436.36363636363637 -294"/>
    <text style="stroke:none;fill:rgb(0,0,0);" x="433.73863636363637" y="-291.0">
      60.0
    </text>
    <text style="stroke:none;fill:rgb(0,0,0);" x="370.62599999999998" y="-272.5">
      X label
    </text>
    <path d="M 300 -314.11764705882354 L 450 -314.11764705882354" style="stroke:rgb(179,179,179);stroke-dasharray:1,1;"/>
    <path d="M 300 -328.23529411764707 L 450 -328.23529411764707" style="stroke:rgb(179,179,179);stroke-dasharray:1,1;"/>
    <path d="M 300 -342.35294117647061 L 450 -342.35294117647061" style="stroke:rgb(179,179,179);stroke-dasharray:1,1;"/>
    <path d="M 300 -356.47058823529414 L 450 -356.47058823529414" style="stroke:rgb(179,179,179);stroke-dasharray:1,1;"/>
    <path d="M 300 -370.58823529411768 L 450 -370.58823529411768" style="stroke:rgb(179,179,179);stroke-dasharray:1,1;"/>
    <path d="M 300 -384.70588235294116 L 450 -384.70588235294116" style="stroke:rgb(179,179,179);stroke-dasharray:1,1;"/>
    <path d="M 300 -398.8235294117647 L 450 -398.8235294117647" style="stroke:rgb(179,179,179);stroke-dasharray:1,1;"/>
    <path d="M 300 -412.94117647058823 L 450 -412.94117647058823" style="stroke:rgb(179,179,179);stroke-dasharray:1,1;"/>
    <path d="M 300 -300 L 300 -420"/>
    <path d="M 300 -300.0 L 294 -300.0"/>
    <text style="stroke:none;fill:rgb(0,0,0);" x="292.5" y="-298.5">
      0
    </text>
    <path d="M 300 -314.11764705882354 L 294 -314.11764705882354"/>
    <text style="stroke:none;fill:rgb(0,0,0);" x="291.0" y="-312.61764705882354">
      10
    </text>
    <path d="M 300 -328.23529411764707 L 294 -328.23529411764707"/>
    <text style="stroke:none;fill:rgb(0,0,0);" x="291.0" y="-326.73529411764707">
      20
    </text>
    <path d="M 300 -342.35294117647061 L 294 -342.35294117647061"/>
    <text style="stroke:none;fill:rgb(0,0,0);" x="291.0" y="-340.85294117647061">
      30
    </text>
    <path d="M 300 -356.47058823529414 L 294 -356.47058823529414"/>
    <text style="stroke:none;fill:rgb(0,0,0);" x="291.0" y="-354.97058823529414">
      40
    </text>
    <path d="M 300 -370.58823529411768 L 294 -370.58823529411768"/>
    <text style="stroke:none;fill:rgb(0,0,0);" x="291.0" y="-369.08823529411768">
      50
    </text>
    <path d="M 300 -384.70588235294116 L 294 -384.70588235294116"/>
    <text style="stroke:none;fill:rgb(0,0,0);" x="291.0" y="-383.20588235294116">
      60
    </text>
    <path d="M 300 -398.8235294117647 L 294 -398.8235294117647"/>
    <text style="stroke:none;fill:rgb(0,0,0);" x="291.0" y="-397.3235294117647">
      70
    </text>
    <path d="M 300 -412.94117647058823 L 294 -412.94117647058823"/>
    <text style="stroke:none;fill:rgb(0,0,0);" x="291.0" y="-411.44117647058823">
      80
    </text>
    <text style="stroke:none;fill:rgb(0,0,0);" transform="rotate(-90,289.5,-355.626)" x="289.5" y="-355.62599999999998">
      Y label
    </text>
    <g style="clip-path:url(#clip0);">
      <g style="clip-path:url(#clip1);">
        <g style="fill:rgb(0,0,0);clip-path:url(#clip2);">
          <path d="M 297.5 -300.0 L 297.5 -328.23529411764707 L 302.5 -328.23529411764707 L 302.5 -300.0 Z" style="stroke:none;"/>
        </g>
        <g>
          <path d="M 297.5 -300.0 L 297.5 -328.23529411764707 L 302.5 -328.23529411764707 L 302.5 -300.0 Z"/>
          <g style="fill:rgb(0,0,0);clip-path:url(#clip3);">
            <path d="M 324.77272727272725 -300.0 L 324.77272727272725 -391.76470588235293 L 329.77272727272725 -391.76470588235293 L 329.77272727272725 -300.0 Z" style="stroke:none;"/>
          </g>
          <g>
            <path d="M 324.77272727272725 -300.0 L 324.77272727272725 -391.76470588235293 L 329.77272727272725 -391.76470588235293 L 329.77272727272725 -300.0 Z"/>
            <g style="fill:rgb(0,0,0);clip-path:url(#clip4);">
              <path d="M 352.04545454545456 -300.0 L 352.04545454545456 -377.64705882352939 L 357.04545454545456 -377.64705882352939 L 357.04545454545456 -300.0 Z" style="stroke:none;"/>
            </g>
            <g>
              <path d="M 352.04545454545456 -300.0 L 352.04545454545456 -377.64705882352939 L 357.04545454545456 -377.64705882352939 L 357.04545454545456 -300.0 Z"/>
              <g style="fill:rgb(0,0,0);clip-path:url(#clip5);">
                <path d="M 379.31818181818181 -300.0 L 379.31818181818181 -363.52941176470586 L 384.31818181818181 -363.52941176470586 L 384.31818181818181 -300.0 Z" style="stroke:none;"/>
              </g>
              <g>
                <path d="M 379.31818181818181 -300.0 L 379.31818181818181 -363.52941176470586 L 384.31818181818181 -363.52941176470586 L 384.31818181818181 -300.0 Z"/>
                <g style="fill:rgb(0,0,0);clip-path:url(#clip6);">
                  <path d="M 406.59090909090912 -300.0 L 406.59090909090912 -335.29411764705884 L 411.59090909090912 -335.29411764705884 L 411.59090909090912 -300.0 Z" style="stroke:none;"/>
                </g>
                <g>
                  <path d="M 406.59090909090912 -300.0 L 406.59090909090912 -335.29411764705884 L 411.59090909090912 -335.29411764705884 L 411.59090909090912 -300.0 Z"/>
                  <g style="fill:rgb(0,0,0);clip-path:url(#clip7);">
                    <path d="M 433.86363636363637 -300.0 L 433.86363636363637 -405.88235294117646 L 438.86363636363637 -405.88235294117646 L 438.86363636363637 -300.0 Z" style="stroke:none;"/>
                  </g>
                  <g>
                    <path d="M 433.86363636363637 -300.0 L 433.86363636363637 -405.88235294117646 L 438.86363636363637 -405.88235294117646 L 438.86363636363637 -300.0 Z"/>
                  </g>
                </g>
              </g>
            </g>
          </g>
        </g>
      </g>
      <g style="clip-path:url(#clip8);">
        <path d="M 300.0 -342.35294117647061 L 327.27272727272725 -346.58823529411762 L 354.54545454545456 -342.35294117647061 L 381.81818181818181 -372.0 L 409.09090909090912 -338.11764705882354 L 436.36363636363637 -342.35294117647061" style="stroke-width:1.2;"/>
      </g>
      <g style="clip-path:url(#clip9);"/>
    </g>
    <g style="fill:rgb(255,255,255);clip-path:url(#clip10);">
      <path d="M 460.0 -297 L 460.0 -306.0 L 477.74900000000002 -306.0 L 477.74900000000002 -297 Z" style="stroke:none;"/>
    </g>
    <g>
      <path d="M 460.0 -297 L 460.0 -306.0 L 477.74900000000002 -306.0 L 477.74900000000002 -297 Z"/>
      <g style="fill:rgb(0,0,0);clip-path:url(#clip11);">
        <path d="M 465.0 -302.94999999999999 L 465.0 -305.05000000000001 L 467.10000000000002 -305.05000000000001 L 467.10000000000002 -302.94999999999999 Z" style="stroke:none;"/>
      </g>
      <g>
        <path d="M 465.0 -302.94999999999999 L 465.0 -305.05000000000001 L 467.10000000000002 -305.05000000000001 L 467.10000000000002 -302.94999999999999 Z"/>
        <text style="stroke:none;fill:rgb(0,0,0);" x="468.0" y="-303.0">
          foo
        </text>
        <path d="M 465.0 -301.0 L 468.0 -301.0" style="stroke-width:1.2;"/>
        <text style="stroke:none;fill:rgb(0,0,0);" x="468.0" y="-300.0">
          bar
        </text>
      </g>
    </g>
  </g>
</svg>
